<?xml version="1.0" standalone="no"?>
<!DOCTYPE svg PUBLIC "-//W3C//DTD SVG 20010904//EN"
 "http://www.w3.org/TR/2001/REC-SVG-20010904/DTD/svg10.dtd">
<svg version="1.0" xmlns="http://www.w3.org/2000/svg"
 width="700.000000pt" height="700.000000pt" viewBox="0 0 700.000000 700.000000"
 preserveAspectRatio="xMidYMid meet">
<metadata>
Created by potrace 1.14, written by Peter Selinger 2001-2017
</metadata>
<g transform="translate(0.000000,700.000000) scale(0.100000,-0.100000)"
fill="#000000" stroke="none">
<path d="M490 6652 c-71 -6 -91 -21 -127 -99 -54 -118 -73 -247 -68 -488 2
-110 5 -209 8 -220 2 -11 8 -51 13 -90 11 -90 9 -82 19 -140 8 -53 9 -60 26
-140 6 -27 13 -63 16 -79 8 -51 83 -349 99 -397 8 -25 16 -56 19 -68 10 -54
116 -383 179 -555 l36 -98 -31 -67 c-61 -130 -135 -388 -165 -571 -3 -19 -10
-54 -15 -77 -8 -37 -23 -140 -45 -298 -3 -27 -8 -58 -10 -68 -2 -10 -6 -48
-10 -85 -3 -36 -7 -73 -9 -82 -2 -8 -6 -44 -10 -80 -4 -36 -9 -78 -12 -95 -9
-53 -12 -509 -3 -553 l8 -44 -42 -17 c-69 -30 -88 -72 -62 -136 17 -39 54 -59
99 -52 21 3 29 -1 32 -17 67 -292 97 -356 238 -511 l55 -60 -100 -53 c-103
-54 -259 -154 -278 -177 -7 -8 -14 -31 -16 -52 -7 -52 26 -92 81 -100 36 -4
49 0 120 48 80 52 314 179 332 179 5 0 25 -15 45 -32 361 -330 570 -484 863
-633 204 -104 408 -182 740 -285 51 -15 238 -62 270 -67 17 -2 44 -8 60 -13
47 -14 391 -68 485 -76 133 -12 360 -6 447 10 10 2 39 7 65 10 25 4 97 15 160
27 62 11 122 21 133 23 11 2 61 14 110 26 50 12 98 23 107 25 118 25 431 126
593 192 94 38 321 147 420 201 173 96 466 319 679 518 43 41 83 74 89 74 18 0
249 -124 331 -178 91 -59 125 -65 171 -28 25 20 30 31 30 69 0 24 -6 51 -14
60 -21 26 -168 120 -277 179 l-102 53 50 55 c75 83 138 170 160 220 22 51 78
262 78 294 0 19 5 21 43 18 37 -3 47 0 74 28 26 27 31 39 29 71 -4 48 -27 76
-76 90 l-36 11 7 52 c8 58 4 513 -5 566 -6 35 -11 78 -21 168 -3 26 -7 61 -10
77 -2 17 -7 53 -10 80 -3 28 -8 61 -10 75 -3 14 -7 45 -10 70 -3 25 -7 55 -9
67 -3 11 -8 43 -12 70 -5 26 -9 50 -9 53 -1 3 -5 30 -9 60 -5 30 -10 62 -12
70 -4 20 -33 150 -39 175 -21 103 -82 286 -126 382 l-29 63 29 77 c117 318
276 863 305 1048 4 20 8 40 10 44 2 3 7 24 10 46 3 22 9 53 12 68 3 16 7 38 9
50 5 45 26 193 31 222 11 61 13 422 3 490 -21 152 -80 298 -127 316 -26 10
-145 14 -159 6 -5 -3 -28 -8 -53 -11 -90 -12 -356 -99 -497 -162 -87 -38 -319
-149 -329 -156 -6 -4 -31 -19 -55 -32 -382 -205 -721 -460 -926 -700 -26 -30
-36 -35 -50 -28 -20 11 -290 80 -343 88 -19 3 -51 9 -70 14 -111 28 -358 53
-550 55 -296 4 -528 -24 -840 -101 -58 -14 -109 -27 -115 -28 -5 -1 -16 -5
-22 -9 -7 -5 -13 -6 -13 -4 0 3 -17 -1 -37 -8 -37 -13 -37 -13 -77 33 -85 96
-213 219 -296 282 -25 19 -47 37 -50 40 -17 17 -171 126 -255 181 -478 311
-1112 570 -1345 551z"/>
</g>
</svg>
